<svg width="22" height="25" viewBox="0 0 22 25" fill="none" xmlns="http://www.w3.org/2000/svg">
<path d="M15.5639 7.98446L13.9689 6.40009L5.99384 14.3282C5.67975 14.6406 5.43063 15.0115 5.26068 15.4196C5.09074 15.8277 5.00331 16.2652 5.00338 16.7069C5.00346 17.1486 5.09103 17.586 5.26111 17.9941C5.43119 18.4022 5.68043 18.7729 5.99462 19.0852C6.30881 19.3975 6.68179 19.6453 7.09225 19.8142C7.50272 19.9832 7.94264 20.0701 8.3869 20.0701C8.83116 20.07 9.27105 19.9829 9.68146 19.8138C10.0919 19.6447 10.4648 19.3969 10.7788 19.0845L20.3489 9.5704C21.4062 8.51886 22.0001 7.09275 22 5.60579C21.9999 4.11883 21.4056 2.69283 20.3481 1.6415C19.2905 0.590161 17.8563 -0.000390626 16.3608 -0.000244113C14.8653 -9.76006e-05 13.4312 0.590735 12.3739 1.64228L2.32611 11.6313L2.30411 11.6517C-0.768038 14.7063 -0.768038 19.6563 2.30411 22.7095C5.37626 25.7626 10.3546 25.7626 13.4267 22.7095L13.4471 22.6876L13.4487 22.6892L20.308 15.8704L18.713 14.286L11.8537 21.1032L11.8333 21.1235C9.64585 23.2985 6.08812 23.2985 3.90069 21.1235C3.37891 20.6036 2.96548 19.9863 2.68411 19.3072C2.40273 18.6281 2.25895 17.9004 2.26099 17.1659C2.26303 16.4314 2.41087 15.7045 2.69602 15.0269C2.98117 14.3493 3.39803 13.7343 3.92269 13.2173L3.92112 13.2157L13.9704 3.22665C15.2889 1.91415 17.4354 1.91415 18.7554 3.22665C20.0754 4.53915 20.0739 6.67196 18.7554 7.9829L9.18542 17.497C8.97125 17.6928 8.68925 17.7989 8.39831 17.7929C8.10738 17.7869 7.83002 17.6694 7.62415 17.4649C7.41829 17.2605 7.29984 16.9848 7.29355 16.6955C7.28727 16.4062 7.39362 16.1257 7.59041 15.9126L15.5654 7.9829L15.5639 7.98446Z" fill="#60C6AD"/>
</svg>
