<svg width="16" height="16" viewBox="0 0 16 16" fill="none" xmlns="http://www.w3.org/2000/svg">
<g clip-path="url(#clip0)">
<path d="M7.98947 0.299988C5.97661 0.299988 4.0462 1.11124 2.6229 2.55527C1.1996 3.9993 0.399994 5.95782 0.399994 7.99999C0.399994 10.0422 1.1996 12.0007 2.6229 13.4447C4.0462 14.8887 5.97661 15.7 7.98947 15.7C10.0023 15.7 11.9327 14.8887 13.356 13.4447C14.7793 12.0007 15.5789 10.0422 15.5789 7.99999C15.5789 5.95782 14.7793 3.9993 13.356 2.55527C11.9327 1.11124 10.0023 0.299988 7.98947 0.299988V0.299988ZM7.98947 14.2562C6.35402 14.2562 4.78556 13.5971 3.62913 12.4238C2.4727 11.2506 1.82302 9.65925 1.82302 7.99999C1.82302 6.34073 2.4727 4.74943 3.62913 3.57615C4.78556 2.40288 6.35402 1.74374 7.98947 1.74374C9.62491 1.74374 11.1934 2.40288 12.3498 3.57615C13.5062 4.74943 14.1559 6.34073 14.1559 7.99999C14.1559 9.65925 13.5062 11.2506 12.3498 12.4238C11.1934 13.5971 9.62491 14.2562 7.98947 14.2562Z" fill="black"/>
<path d="M5.65854 10.9289L6.99998 12.2899L11.2283 8.00001L6.99998 3.71014L5.65854 5.07112L8.54538 8.00001L5.65854 10.9289Z" fill="black"/>
</g>
<defs>
<clipPath id="clip0">
<rect width="15.1789" height="15.4" fill="white" transform="translate(0.399994 0.299988)"/>
</clipPath>
</defs>
</svg>
