<svg width="133" height="105" viewBox="0 0 133 105" fill="none" xmlns="http://www.w3.org/2000/svg">
<g filter="url(#filter0_d)">
<path d="M118.592 76.1094C124.464 70.3627 127.987 63.1529 127.987 55.2857C127.987 38.3214 111.653 24.3047 90.3652 21.8025C83.6394 9.58817 67.8392 1 49.4128 1C24.8798 1 5.00144 16.183 5.00144 34.9286C5.00144 42.7746 8.52445 49.9844 14.3961 55.7522C11.1293 62.2623 6.432 67.3092 6.34659 67.394C5.00144 68.8147 4.61711 70.8929 5.40712 72.6953C6.17578 74.4978 7.96931 75.6641 9.93366 75.6641C21.3568 75.6641 30.5807 71.3806 36.6659 67.4364C38.6302 67.8817 40.6586 68.221 42.7297 68.4754C49.4341 80.6473 65.1703 89.2143 83.5753 89.2143C88.0165 89.2143 92.2868 88.7054 96.3436 87.7723C102.429 91.6953 111.631 96 123.076 96C125.04 96 126.812 94.8337 127.602 93.0312C128.371 91.2288 128.008 89.1507 126.663 87.7299C126.577 87.6663 121.859 82.6194 118.592 76.1094ZM34.7229 56.5368L31.0717 58.8906C28.0612 60.8203 24.9865 62.3471 21.8692 63.4286C22.4457 62.4319 23.0222 61.3717 23.5773 60.2902L26.8868 53.6953L21.5916 48.5C18.7092 45.6585 15.2502 41.0145 15.2502 34.9286C15.2502 22.0569 30.9009 11.1786 49.4128 11.1786C67.9246 11.1786 83.5753 22.0569 83.5753 34.9286C83.5753 47.8002 67.9246 58.6786 49.4128 58.6786C45.8898 58.6786 42.3667 58.2757 38.9505 57.4911L34.7229 56.5368ZM111.396 68.8571L106.123 74.0312L109.432 80.6261C109.987 81.7076 110.564 82.7679 111.14 83.7645C108.023 82.683 104.948 81.1562 101.938 79.2266L98.2866 76.8728L94.0376 77.8482C90.6214 78.6328 87.0984 79.0357 83.5753 79.0357C72.0455 79.0357 61.754 74.7734 55.5407 68.4967C77.1699 66.2065 93.8241 52.0837 93.8241 34.9286C93.8241 34.2076 93.7387 33.5078 93.6747 32.808C107.425 35.8828 117.738 44.8527 117.738 55.2857C117.738 61.3717 114.279 66.0156 111.396 68.8571Z" fill="#60C6AD" fill-opacity="0.2"/>
<path d="M118.592 76.1094C124.464 70.3627 127.987 63.1529 127.987 55.2857C127.987 38.3214 111.653 24.3047 90.3652 21.8025C83.6394 9.58817 67.8392 1 49.4128 1C24.8798 1 5.00144 16.183 5.00144 34.9286C5.00144 42.7746 8.52445 49.9844 14.3961 55.7522C11.1293 62.2623 6.432 67.3092 6.34659 67.394C5.00144 68.8147 4.61711 70.8929 5.40712 72.6953C6.17578 74.4978 7.96931 75.6641 9.93366 75.6641C21.3568 75.6641 30.5807 71.3806 36.6659 67.4364C38.6302 67.8817 40.6586 68.221 42.7297 68.4754C49.4341 80.6473 65.1703 89.2143 83.5753 89.2143C88.0165 89.2143 92.2868 88.7054 96.3436 87.7723C102.429 91.6953 111.631 96 123.076 96C125.04 96 126.812 94.8337 127.602 93.0312C128.371 91.2288 128.008 89.1507 126.663 87.7299C126.577 87.6663 121.859 82.6194 118.592 76.1094ZM34.7229 56.5368L31.0717 58.8906C28.0612 60.8203 24.9865 62.3471 21.8692 63.4286C22.4457 62.4319 23.0222 61.3717 23.5773 60.2902L26.8868 53.6953L21.5916 48.5C18.7092 45.6585 15.2502 41.0145 15.2502 34.9286C15.2502 22.0569 30.9009 11.1786 49.4128 11.1786C67.9246 11.1786 83.5753 22.0569 83.5753 34.9286C83.5753 47.8002 67.9246 58.6786 49.4128 58.6786C45.8898 58.6786 42.3667 58.2757 38.9505 57.4911L34.7229 56.5368ZM111.396 68.8571L106.123 74.0312L109.432 80.6261C109.987 81.7076 110.564 82.7679 111.14 83.7645C108.023 82.683 104.948 81.1562 101.938 79.2266L98.2866 76.8728L94.0376 77.8482C90.6214 78.6328 87.0984 79.0357 83.5753 79.0357C72.0455 79.0357 61.754 74.7734 55.5407 68.4967C77.1699 66.2065 93.8241 52.0837 93.8241 34.9286C93.8241 34.2076 93.7387 33.5078 93.6747 32.808C107.425 35.8828 117.738 44.8527 117.738 55.2857C117.738 61.3717 114.279 66.0156 111.396 68.8571Z" stroke="black" stroke-opacity="0.5" stroke-width="0.7"/>
</g>
<defs>
<filter id="filter0_d" x="0.649948" y="0.649994" width="131.7" height="103.7" filterUnits="userSpaceOnUse" color-interpolation-filters="sRGB">
<feFlood flood-opacity="0" result="BackgroundImageFix"/>
<feColorMatrix in="SourceAlpha" type="matrix" values="0 0 0 0 0 0 0 0 0 0 0 0 0 0 0 0 0 0 127 0"/>
<feOffset dy="4"/>
<feGaussianBlur stdDeviation="2"/>
<feColorMatrix type="matrix" values="0 0 0 0 0 0 0 0 0 0 0 0 0 0 0 0 0 0 0.25 0"/>
<feBlend mode="normal" in2="BackgroundImageFix" result="effect1_dropShadow"/>
<feBlend mode="normal" in="SourceGraphic" in2="effect1_dropShadow" result="shape"/>
</filter>
</defs>
</svg>
