<svg width="137" height="33" viewBox="0 0 137 33" fill="none" xmlns="http://www.w3.org/2000/svg">
<g filter="url(#filter0_d)">
<path d="M13.7677 20V4.928L11.1997 14.36H9.20769L6.63969 4.928V20H4.71969V3.2H8.10369L10.2877 11.792L12.4477 3.2H15.7597V20H13.7677ZM21.3969 14.72C21.4129 15.504 21.4689 16.144 21.5649 16.64C21.6769 17.12 21.8209 17.496 21.9969 17.768C22.1729 18.04 22.3809 18.224 22.6209 18.32C22.8609 18.4 23.1329 18.44 23.4369 18.44C24.1089 18.44 24.7169 18.4 25.2609 18.32C25.8209 18.224 26.2849 18.136 26.6529 18.056V19.784C26.2689 19.896 25.7809 19.984 25.1889 20.048C24.6129 20.128 24.1089 20.168 23.6769 20.168C22.9889 20.168 22.3729 20.096 21.8289 19.952C21.3009 19.808 20.8529 19.52 20.4849 19.088C20.1169 18.656 19.8369 18.04 19.6449 17.24C19.4529 16.424 19.3569 15.344 19.3569 14C19.3569 12.896 19.4449 11.952 19.6209 11.168C19.8129 10.384 20.0929 9.744 20.4609 9.248C20.8289 8.752 21.2849 8.392 21.8289 8.168C22.3729 7.944 23.0049 7.832 23.7249 7.832C25.1009 7.832 26.0849 8.288 26.6769 9.2C27.2849 10.096 27.5889 11.336 27.5889 12.92V14.72H21.3969ZM23.6769 9.536C23.2929 9.536 22.9649 9.592 22.6929 9.704C22.4209 9.816 22.1969 10.008 22.0209 10.28C21.8449 10.552 21.7089 10.92 21.6129 11.384C21.5169 11.832 21.4529 12.4 21.4209 13.088H25.5969V12.44C25.5969 11.528 25.4529 10.816 25.1649 10.304C24.8929 9.792 24.3969 9.536 23.6769 9.536ZM37.4714 16.52C37.4714 17.848 37.1034 18.792 36.3674 19.352C35.6474 19.896 34.6714 20.168 33.4394 20.168C32.7514 20.168 32.1674 20.12 31.6874 20.024C31.2074 19.944 30.8314 19.864 30.5594 19.784V18.032C30.7034 18.064 30.8874 18.104 31.1114 18.152C31.3514 18.184 31.6074 18.224 31.8794 18.272C32.1514 18.304 32.4314 18.336 32.7194 18.368C33.0234 18.4 33.3194 18.416 33.6074 18.416C33.9274 18.416 34.1914 18.368 34.3994 18.272C34.6234 18.16 34.7994 18.024 34.9274 17.864C35.0714 17.688 35.1754 17.496 35.2394 17.288C35.3034 17.064 35.3354 16.848 35.3354 16.64C35.3354 16.064 35.2314 15.64 35.0234 15.368C34.8314 15.096 34.4314 14.904 33.8234 14.792C32.5914 14.568 31.7194 14.184 31.2074 13.64C30.7114 13.08 30.4634 12.352 30.4634 11.456C30.4634 10.8 30.5674 10.248 30.7754 9.8C30.9834 9.336 31.2634 8.96 31.6154 8.672C31.9834 8.384 32.4074 8.176 32.8874 8.048C33.3834 7.904 33.9194 7.832 34.4954 7.832C35.1194 7.832 35.6394 7.888 36.0554 8C36.4874 8.096 36.8234 8.176 37.0634 8.24V9.992C36.6474 9.896 36.2474 9.8 35.8634 9.704C35.4794 9.608 34.9594 9.56 34.3034 9.56C33.9354 9.56 33.6314 9.616 33.3914 9.728C33.1674 9.824 32.9914 9.96 32.8634 10.136C32.7354 10.296 32.6474 10.48 32.5994 10.688C32.5674 10.896 32.5514 11.112 32.5514 11.336C32.5514 12.216 33.0634 12.736 34.0874 12.896C35.3354 13.104 36.2074 13.496 36.7034 14.072C37.2154 14.648 37.4714 15.464 37.4714 16.52ZM46.8933 16.52C46.8933 17.848 46.5253 18.792 45.7893 19.352C45.0693 19.896 44.0933 20.168 42.8613 20.168C42.1733 20.168 41.5893 20.12 41.1093 20.024C40.6293 19.944 40.2533 19.864 39.9813 19.784V18.032C40.1253 18.064 40.3093 18.104 40.5333 18.152C40.7733 18.184 41.0293 18.224 41.3013 18.272C41.5733 18.304 41.8533 18.336 42.1413 18.368C42.4453 18.4 42.7413 18.416 43.0293 18.416C43.3493 18.416 43.6133 18.368 43.8213 18.272C44.0453 18.16 44.2213 18.024 44.3493 17.864C44.4933 17.688 44.5973 17.496 44.6613 17.288C44.7253 17.064 44.7573 16.848 44.7573 16.64C44.7573 16.064 44.6533 15.64 44.4453 15.368C44.2533 15.096 43.8533 14.904 43.2453 14.792C42.0133 14.568 41.1413 14.184 40.6293 13.64C40.1333 13.08 39.8853 12.352 39.8853 11.456C39.8853 10.8 39.9893 10.248 40.1973 9.8C40.4053 9.336 40.6853 8.96 41.0373 8.672C41.4053 8.384 41.8293 8.176 42.3093 8.048C42.8053 7.904 43.3413 7.832 43.9173 7.832C44.5413 7.832 45.0613 7.888 45.4773 8C45.9093 8.096 46.2453 8.176 46.4853 8.24V9.992C46.0693 9.896 45.6693 9.8 45.2853 9.704C44.9013 9.608 44.3813 9.56 43.7253 9.56C43.3573 9.56 43.0533 9.616 42.8133 9.728C42.5893 9.824 42.4133 9.96 42.2853 10.136C42.1573 10.296 42.0693 10.48 42.0213 10.688C41.9893 10.896 41.9733 11.112 41.9733 11.336C41.9733 12.216 42.4853 12.736 43.5093 12.896C44.7573 13.104 45.6293 13.496 46.1253 14.072C46.6373 14.648 46.8933 15.464 46.8933 16.52ZM51.7016 14.72C51.7176 15.504 51.7736 16.144 51.8696 16.64C51.9816 17.12 52.1256 17.496 52.3016 17.768C52.4776 18.04 52.6856 18.224 52.9256 18.32C53.1656 18.4 53.4376 18.44 53.7416 18.44C54.4136 18.44 55.0216 18.4 55.5656 18.32C56.1256 18.224 56.5896 18.136 56.9576 18.056V19.784C56.5736 19.896 56.0856 19.984 55.4936 20.048C54.9176 20.128 54.4136 20.168 53.9816 20.168C53.2936 20.168 52.6776 20.096 52.1336 19.952C51.6056 19.808 51.1576 19.52 50.7896 19.088C50.4216 18.656 50.1416 18.04 49.9496 17.24C49.7576 16.424 49.6616 15.344 49.6616 14C49.6616 12.896 49.7496 11.952 49.9256 11.168C50.1176 10.384 50.3976 9.744 50.7656 9.248C51.1336 8.752 51.5896 8.392 52.1336 8.168C52.6776 7.944 53.3096 7.832 54.0296 7.832C55.4056 7.832 56.3896 8.288 56.9816 9.2C57.5896 10.096 57.8936 11.336 57.8936 12.92V14.72H51.7016ZM53.9816 9.536C53.5976 9.536 53.2696 9.592 52.9976 9.704C52.7256 9.816 52.5016 10.008 52.3256 10.28C52.1496 10.552 52.0136 10.92 51.9176 11.384C51.8216 11.832 51.7576 12.4 51.7256 13.088H55.9016V12.44C55.9016 11.528 55.7576 10.816 55.4696 10.304C55.1976 9.792 54.7016 9.536 53.9816 9.536ZM61.2481 20V8H62.9281L63.0961 9.08C63.8801 8.248 64.8641 7.832 66.0481 7.832C66.7361 7.832 67.3121 7.92 67.7761 8.096C68.2401 8.256 68.6081 8.512 68.8801 8.864C69.1681 9.2 69.3681 9.64 69.4801 10.184C69.6081 10.712 69.6721 11.344 69.6721 12.08V20H67.6321V11.84C67.6321 11.088 67.5041 10.52 67.2481 10.136C67.0081 9.752 66.4881 9.56 65.6881 9.56C65.3521 9.56 65.0321 9.624 64.7281 9.752C64.4401 9.88 64.1841 10.048 63.9601 10.256C63.7521 10.464 63.5841 10.688 63.4561 10.928C63.3441 11.152 63.2881 11.376 63.2881 11.6V20H61.2481ZM82.1488 12.2C82.1488 13.56 81.7488 14.576 80.9488 15.248C80.1648 15.904 78.9488 16.232 77.3008 16.232C76.7088 16.232 76.1808 16.184 75.7168 16.088C75.5568 16.44 75.4768 16.784 75.4768 17.12C75.4768 17.328 75.5168 17.552 75.5968 17.792C76.1408 17.744 76.6768 17.704 77.2048 17.672C77.7328 17.624 78.1968 17.6 78.5968 17.6C79.1728 17.6 79.7008 17.648 80.1808 17.744C80.6768 17.84 81.1008 18.024 81.4528 18.296C81.8048 18.552 82.0768 18.912 82.2688 19.376C82.4768 19.84 82.5808 20.44 82.5808 21.176C82.5808 21.784 82.4608 22.296 82.2208 22.712C81.9968 23.144 81.6768 23.496 81.2608 23.768C80.8608 24.04 80.3808 24.24 79.8208 24.368C79.2768 24.496 78.6848 24.56 78.0448 24.56C77.7408 24.56 77.3728 24.544 76.9408 24.512C76.5088 24.48 76.0688 24.44 75.6208 24.392C75.1888 24.36 74.7728 24.32 74.3728 24.272C73.9888 24.224 73.6848 24.176 73.4608 24.128V22.4C73.7648 22.448 74.1088 22.496 74.4928 22.544C74.8928 22.608 75.3008 22.656 75.7168 22.688C76.1488 22.72 76.5808 22.744 77.0128 22.76C77.4448 22.792 77.8528 22.808 78.2368 22.808C79.0528 22.808 79.6288 22.648 79.9648 22.328C80.3168 22.024 80.4928 21.64 80.4928 21.176C80.4928 20.568 80.3488 20.12 80.0608 19.832C79.7888 19.544 79.2608 19.4 78.4768 19.4C78.2528 19.4 77.9648 19.408 77.6128 19.424C77.2608 19.44 76.8928 19.464 76.5088 19.496C76.1408 19.512 75.7728 19.536 75.4048 19.568C75.0528 19.6 74.7568 19.632 74.5168 19.664C74.2448 19.408 74.0048 19.064 73.7968 18.632C73.6048 18.184 73.5088 17.776 73.5088 17.408C73.5088 16.928 73.5648 16.528 73.6768 16.208C73.7888 15.888 73.9488 15.616 74.1568 15.392C73.6928 15.04 73.3648 14.584 73.1728 14.024C72.9968 13.464 72.9088 12.792 72.9088 12.008C72.9088 11.144 73.0448 10.44 73.3168 9.896C73.5888 9.352 73.9488 8.928 74.3968 8.624C74.8608 8.32 75.3888 8.112 75.9808 8C76.5888 7.888 77.2288 7.832 77.9008 7.832C78.6048 7.832 79.2288 7.944 79.7728 8.168L83.2528 8V9.8L81.5968 9.728C81.9648 10.416 82.1488 11.24 82.1488 12.2ZM80.1088 12.008C80.1088 11.672 80.0688 11.36 79.9888 11.072C79.9248 10.768 79.7968 10.504 79.6048 10.28C79.4128 10.056 79.1568 9.88 78.8368 9.752C78.5328 9.608 78.1408 9.536 77.6608 9.536C76.6208 9.536 75.9088 9.752 75.5248 10.184C75.1408 10.6 74.9488 11.272 74.9488 12.2C74.9488 12.536 74.9808 12.856 75.0448 13.16C75.1248 13.448 75.2528 13.696 75.4288 13.904C75.6048 14.112 75.8448 14.28 76.1488 14.408C76.4528 14.52 76.8368 14.576 77.3008 14.576C77.7008 14.576 78.0688 14.544 78.4048 14.48C78.7568 14.416 79.0528 14.296 79.2928 14.12C79.5488 13.928 79.7488 13.664 79.8928 13.328C80.0368 12.992 80.1088 12.552 80.1088 12.008ZM87.5844 14.72C87.6004 15.504 87.6564 16.144 87.7524 16.64C87.8644 17.12 88.0084 17.496 88.1844 17.768C88.3604 18.04 88.5684 18.224 88.8084 18.32C89.0484 18.4 89.3204 18.44 89.6244 18.44C90.2964 18.44 90.9044 18.4 91.4484 18.32C92.0084 18.224 92.4724 18.136 92.8404 18.056V19.784C92.4564 19.896 91.9684 19.984 91.3764 20.048C90.8004 20.128 90.2964 20.168 89.8644 20.168C89.1764 20.168 88.5604 20.096 88.0164 19.952C87.4884 19.808 87.0404 19.52 86.6724 19.088C86.3044 18.656 86.0244 18.04 85.8324 17.24C85.6404 16.424 85.5444 15.344 85.5444 14C85.5444 12.896 85.6324 11.952 85.8084 11.168C86.0004 10.384 86.2804 9.744 86.6484 9.248C87.0164 8.752 87.4724 8.392 88.0164 8.168C88.5604 7.944 89.1924 7.832 89.9124 7.832C91.2884 7.832 92.2724 8.288 92.8644 9.2C93.4724 10.096 93.7764 11.336 93.7764 12.92V14.72H87.5844ZM89.8644 9.536C89.4804 9.536 89.1524 9.592 88.8804 9.704C88.6084 9.816 88.3844 10.008 88.2084 10.28C88.0324 10.552 87.8964 10.92 87.8004 11.384C87.7044 11.832 87.6404 12.4 87.6084 13.088H91.7844V12.44C91.7844 11.528 91.6404 10.816 91.3524 10.304C91.0804 9.792 90.5844 9.536 89.8644 9.536ZM97.1309 20V8H98.8109L98.9549 9.224C99.2269 8.808 99.5629 8.472 99.9629 8.216C100.363 7.96 100.859 7.832 101.451 7.832C101.739 7.832 101.987 7.848 102.195 7.88C102.403 7.896 102.579 7.92 102.723 7.952V10.088C102.515 10.04 102.275 9.992 102.003 9.944C101.747 9.896 101.507 9.872 101.283 9.872C100.883 9.872 100.547 9.952 100.275 10.112C100.019 10.272 99.8029 10.488 99.6269 10.76C99.4669 11.016 99.3469 11.312 99.2669 11.648C99.2029 11.968 99.1709 12.288 99.1709 12.608V20H97.1309Z" fill="#60C6AD"/>
<path d="M13.7677 20H13.4177V20.35H13.7677V20ZM13.7677 4.928H14.1177L13.43 4.83605L13.7677 4.928ZM11.1997 14.36V14.71H11.4671L11.5374 14.4519L11.1997 14.36ZM9.20769 14.36L8.86998 14.4519L8.94024 14.71H9.20769V14.36ZM6.63969 4.928L6.97739 4.83605L6.28969 4.928H6.63969ZM6.63969 20V20.35H6.98969V20H6.63969ZM4.71969 20H4.36969V20.35H4.71969V20ZM4.71969 3.2V2.85H4.36969V3.2H4.71969ZM8.10369 3.2L8.4429 3.11377L8.37585 2.85H8.10369V3.2ZM10.2877 11.792L9.94847 11.8782L10.6271 11.8773L10.2877 11.792ZM12.4477 3.2V2.85H12.1748L12.1082 3.11467L12.4477 3.2ZM15.7597 3.2H16.1097V2.85H15.7597V3.2ZM15.7597 20V20.35H16.1097V20H15.7597ZM14.1177 20V4.928H13.4177V20H14.1177ZM13.43 4.83605L10.862 14.2681L11.5374 14.4519L14.1054 5.01995L13.43 4.83605ZM11.1997 14.01H9.20769V14.71H11.1997V14.01ZM9.54539 14.2681L6.97739 4.83605L6.30198 5.01995L8.86998 14.4519L9.54539 14.2681ZM6.28969 4.928V20H6.98969V4.928H6.28969ZM6.63969 19.65H4.71969V20.35H6.63969V19.65ZM5.06969 20V3.2H4.36969V20H5.06969ZM4.71969 3.55H8.10369V2.85H4.71969V3.55ZM7.76447 3.28622L9.94847 11.8782L10.6269 11.7058L8.4429 3.11377L7.76447 3.28622ZM10.6271 11.8773L12.7871 3.28533L12.1082 3.11467L9.94825 11.7067L10.6271 11.8773ZM12.4477 3.55H15.7597V2.85H12.4477V3.55ZM15.4097 3.2V20H16.1097V3.2H15.4097ZM15.7597 19.65H13.7677V20.35H15.7597V19.65ZM21.3969 14.72V14.37H21.0397L21.0469 14.7271L21.3969 14.72ZM21.5649 16.64L21.221 16.7066L21.224 16.7195L21.5649 16.64ZM21.9969 17.768L22.2907 17.5779L21.9969 17.768ZM22.6209 18.32L22.4909 18.645L22.5004 18.6488L22.5102 18.652L22.6209 18.32ZM25.2609 18.32L25.3118 18.6664L25.32 18.665L25.2609 18.32ZM26.6529 18.056H27.0029V17.6217L26.5785 17.714L26.6529 18.056ZM26.6529 19.784L26.7509 20.12L27.0029 20.0465V19.784H26.6529ZM25.1889 20.048L25.1512 19.6999L25.1407 19.7013L25.1889 20.048ZM21.8289 19.952L21.7368 20.2897L21.7393 20.2903L21.8289 19.952ZM20.4849 19.088L20.2184 19.315L20.4849 19.088ZM19.6449 17.24L19.3042 17.3202L19.3045 17.3217L19.6449 17.24ZM19.6209 11.168L19.2809 11.0847L19.2794 11.0913L19.6209 11.168ZM20.4609 9.248L20.742 9.45655H20.742L20.4609 9.248ZM21.8289 8.168L21.9621 8.49164L21.8289 8.168ZM26.6769 9.2L26.3832 9.3906L26.3873 9.39653L26.6769 9.2ZM27.5889 14.72V15.07H27.9389V14.72H27.5889ZM22.0209 10.28L21.727 10.0899L22.0209 10.28ZM21.6129 11.384L21.9551 11.4573L21.9556 11.4549L21.6129 11.384ZM21.4209 13.088L21.0713 13.0717L21.0542 13.438H21.4209V13.088ZM25.5969 13.088V13.438H25.9469V13.088H25.5969ZM25.1649 10.304L24.8557 10.4683L24.8598 10.4756L25.1649 10.304ZM21.0469 14.7271C21.0632 15.5215 21.12 16.1833 21.2213 16.7065L21.9085 16.5735C21.8178 16.1047 21.7626 15.4865 21.7468 14.7129L21.0469 14.7271ZM21.224 16.7195C21.3409 17.2205 21.4968 17.6394 21.703 17.9581L22.2907 17.5779C22.145 17.3526 22.0128 17.0195 21.9057 16.5605L21.224 16.7195ZM21.703 17.9581C21.9083 18.2754 22.1683 18.5159 22.4909 18.645L22.7509 17.995C22.5935 17.9321 22.4374 17.8046 22.2907 17.5779L21.703 17.9581ZM22.5102 18.652C22.7922 18.7461 23.1026 18.79 23.4369 18.79V18.09C23.1631 18.09 22.9295 18.0539 22.7316 17.988L22.5102 18.652ZM23.4369 18.79C24.1223 18.79 24.7477 18.7492 25.3118 18.6663L25.21 17.9737C24.686 18.0508 24.0954 18.09 23.4369 18.09V18.79ZM25.32 18.665C25.8828 18.5685 26.3523 18.4795 26.7272 18.398L26.5785 17.714C26.2174 17.7925 25.7589 17.8795 25.2017 17.975L25.32 18.665ZM26.3029 18.056V19.784H27.0029V18.056H26.3029ZM26.5549 19.448C26.1976 19.5522 25.7317 19.6373 25.1513 19.7L25.2265 20.396C25.8301 20.3307 26.3401 20.2398 26.7509 20.12L26.5549 19.448ZM25.1407 19.7013C24.5756 19.7798 24.0884 19.818 23.6769 19.818V20.518C24.1294 20.518 24.6501 20.4762 25.237 20.3947L25.1407 19.7013ZM23.6769 19.818C23.0127 19.818 22.4276 19.7484 21.9184 19.6137L21.7393 20.2903C22.3182 20.4436 22.9651 20.518 23.6769 20.518V19.818ZM21.921 19.6143C21.4635 19.4896 21.0754 19.2415 20.7513 18.861L20.2184 19.315C20.6303 19.7985 21.1382 20.1264 21.7368 20.2897L21.921 19.6143ZM20.7513 18.861C20.4314 18.4855 20.1697 17.9271 19.9852 17.1583L19.3045 17.3217C19.504 18.1529 19.8023 18.8265 20.2184 19.315L20.7513 18.861ZM19.9856 17.1598C19.8023 16.381 19.7069 15.3311 19.7069 14H19.0069C19.0069 15.3569 19.1034 16.467 19.3042 17.3202L19.9856 17.1598ZM19.7069 14C19.7069 12.9129 19.7937 11.9961 19.9624 11.2447L19.2794 11.0913C19.0961 11.9079 19.0069 12.8791 19.0069 14H19.7069ZM19.9608 11.2513C20.145 10.4993 20.4088 9.90554 20.742 9.45655L20.1798 9.03945C19.7769 9.58246 19.4808 10.2687 19.2809 11.0847L19.9608 11.2513ZM20.742 9.45655C21.074 9.00897 21.4799 8.69019 21.9621 8.49164L21.6956 7.84436C21.0898 8.09381 20.5837 8.49503 20.1798 9.03945L20.742 9.45655ZM21.9621 8.49164C22.4555 8.28847 23.0406 8.182 23.7249 8.182V7.482C22.9691 7.482 22.2902 7.59953 21.6956 7.84436L21.9621 8.49164ZM23.7249 8.182C25.018 8.182 25.8731 8.60463 26.3833 9.39056L26.9704 9.00943C26.2966 7.97136 25.1837 7.482 23.7249 7.482V8.182ZM26.3873 9.39653C26.9416 10.2134 27.2389 11.3753 27.2389 12.92H27.9389C27.9389 11.2967 27.6282 9.97856 26.9665 9.00347L26.3873 9.39653ZM27.2389 12.92V14.72H27.9389V12.92H27.2389ZM27.5889 14.37H21.3969V15.07H27.5889V14.37ZM23.6769 9.186C23.2604 9.186 22.8846 9.24652 22.5596 9.38036L22.8261 10.0276C23.0451 9.93747 23.3253 9.886 23.6769 9.886V9.186ZM22.5596 9.38036C22.2151 9.52222 21.9376 9.76439 21.727 10.0899L22.3147 10.4701C22.4561 10.2516 22.6267 10.1098 22.8261 10.0276L22.5596 9.38036ZM21.727 10.0899C21.5193 10.4109 21.3712 10.8245 21.2701 11.3131L21.9556 11.4549C22.0465 11.0155 22.1705 10.6931 22.3147 10.4701L21.727 10.0899ZM21.2706 11.3107C21.1692 11.7843 21.1037 12.3731 21.0713 13.0717L21.7705 13.1043C21.802 12.4269 21.8646 11.8797 21.9551 11.4573L21.2706 11.3107ZM21.4209 13.438H25.5969V12.738H21.4209V13.438ZM25.9469 13.088V12.44H25.2469V13.088H25.9469ZM25.9469 12.44C25.9469 11.4982 25.7993 10.718 25.4699 10.1324L24.8598 10.4756C25.1064 10.914 25.2469 11.5578 25.2469 12.44H25.9469ZM25.474 10.1398C25.1256 9.48402 24.4892 9.186 23.6769 9.186V9.886C24.3046 9.886 24.6602 10.1 24.8558 10.4682L25.474 10.1398ZM36.3674 19.352L36.5784 19.6313L36.5794 19.6305L36.3674 19.352ZM31.6874 20.024L31.7561 19.6806L31.745 19.6788L31.6874 20.024ZM30.5594 19.784H30.2094V20.0459L30.4607 20.1198L30.5594 19.784ZM30.5594 18.032L30.6354 17.6903L30.2094 17.5957V18.032H30.5594ZM31.1114 18.152L31.0381 18.4942L31.0515 18.4971L31.0652 18.4989L31.1114 18.152ZM31.8794 18.272L31.8186 18.6167L31.8285 18.6184L31.8385 18.6196L31.8794 18.272ZM32.7194 18.368L32.6808 18.7159L32.6828 18.7161L32.7194 18.368ZM34.3994 18.272L34.5462 18.5899L34.556 18.585L34.3994 18.272ZM34.9274 17.864L34.6565 17.6424L34.6541 17.6454L34.9274 17.864ZM35.2394 17.288L35.574 17.391L35.576 17.3842L35.2394 17.288ZM35.0234 15.368L34.7373 15.57L34.7454 15.5806L35.0234 15.368ZM33.8234 14.792L33.8868 14.4478L33.886 14.4476L33.8234 14.792ZM31.2074 13.64L30.9453 13.8722L30.9526 13.8799L31.2074 13.64ZM30.7754 9.8L31.0929 9.9474L31.0948 9.94317L30.7754 9.8ZM31.6154 8.672L31.3997 8.39631L31.3938 8.40111L31.6154 8.672ZM32.8874 8.048L32.9776 8.38626L32.985 8.38412L32.8874 8.048ZM36.0554 8L35.9644 8.33797L35.9719 8.33998L35.9795 8.34167L36.0554 8ZM37.0634 8.24H37.4134V7.9711L37.1536 7.90182L37.0634 8.24ZM37.0634 9.992L36.9847 10.333L37.4134 10.432V9.992H37.0634ZM35.8634 9.704L35.9483 9.36445L35.8634 9.704ZM33.3914 9.728L33.5294 10.0499L33.5394 10.0452L33.3914 9.728ZM32.8634 10.136L33.1367 10.3546L33.1418 10.3484L33.1465 10.3419L32.8634 10.136ZM32.5994 10.688L32.2584 10.6093L32.2555 10.6219L32.2535 10.6348L32.5994 10.688ZM34.0874 12.896L34.145 12.5507L34.1415 12.5502L34.0874 12.896ZM36.7034 14.072L36.4382 14.3004L36.4418 14.3045L36.7034 14.072ZM37.1214 16.52C37.1214 17.7888 36.7712 18.605 36.1555 19.0735L36.5794 19.6305C37.4357 18.979 37.8214 17.9072 37.8214 16.52H37.1214ZM36.1564 19.0727C35.5159 19.5567 34.6227 19.818 33.4394 19.818V20.518C34.7202 20.518 35.7789 20.2353 36.5784 19.6313L36.1564 19.0727ZM33.4394 19.818C32.766 19.818 32.2064 19.7709 31.7561 19.6808L31.6188 20.3672C32.1284 20.4691 32.7369 20.518 33.4394 20.518V19.818ZM31.745 19.6788C31.2706 19.5997 30.9104 19.5224 30.6582 19.4482L30.4607 20.1198C30.7524 20.2056 31.1443 20.2883 31.6299 20.3692L31.745 19.6788ZM30.9094 19.784V18.032H30.2094V19.784H30.9094ZM30.4835 18.3737C30.6287 18.4059 30.8137 18.4461 31.0381 18.4942L31.1848 17.8098C30.9612 17.7619 30.7782 17.7221 30.6354 17.6903L30.4835 18.3737ZM31.0652 18.4989C31.2997 18.5302 31.5508 18.5694 31.8186 18.6167L31.9403 17.9273C31.6641 17.8786 31.4032 17.8378 31.1577 17.8051L31.0652 18.4989ZM31.8385 18.6196C32.1113 18.6517 32.3921 18.6838 32.6808 18.7159L32.7581 18.0201C32.4708 17.9882 32.1915 17.9563 31.9203 17.9244L31.8385 18.6196ZM32.6828 18.7161C32.9982 18.7493 33.3065 18.766 33.6074 18.766V18.066C33.3324 18.066 33.0486 18.0507 32.7561 18.0199L32.6828 18.7161ZM33.6074 18.766C33.9593 18.766 34.2777 18.7137 34.5461 18.5898L34.2528 17.9542C34.1052 18.0223 33.8956 18.066 33.6074 18.066V18.766ZM34.556 18.585C34.8154 18.4553 35.0349 18.29 35.2007 18.0826L34.6541 17.6454C34.564 17.758 34.4315 17.8647 34.2429 17.959L34.556 18.585ZM35.1983 18.0856C35.3697 17.8762 35.496 17.6442 35.574 17.3909L34.9049 17.1851C34.8548 17.3478 34.7732 17.4998 34.6566 17.6424L35.1983 18.0856ZM35.576 17.3842C35.6479 17.1326 35.6854 16.8842 35.6854 16.64H34.9854C34.9854 16.8118 34.959 16.9954 34.9029 17.1918L35.576 17.3842ZM35.6854 16.64C35.6854 16.0348 35.5786 15.5177 35.3015 15.1554L34.7454 15.5806C34.8843 15.7623 34.9854 16.0932 34.9854 16.64H35.6854ZM35.3094 15.1662C35.0347 14.777 34.5157 14.5636 33.8868 14.4478L33.76 15.1362C34.3472 15.2444 34.6282 15.415 34.7375 15.5698L35.3094 15.1662ZM33.886 14.4476C32.6825 14.2288 31.8987 13.8637 31.4623 13.4001L30.9526 13.8799C31.5402 14.5043 32.5003 14.9072 33.7608 15.1364L33.886 14.4476ZM31.4694 13.4079C31.0409 12.9241 30.8134 12.2843 30.8134 11.456H30.1134C30.1134 12.4197 30.382 13.2359 30.9454 13.8721L31.4694 13.4079ZM30.8134 11.456C30.8134 10.835 30.9121 10.3367 31.0929 9.94739L30.458 9.65261C30.2227 10.1593 30.1134 10.765 30.1134 11.456H30.8134ZM31.0948 9.94317C31.2832 9.52283 31.5319 9.19259 31.8371 8.94288L31.3938 8.40111C30.995 8.7274 30.6836 9.14916 30.4561 9.65683L31.0948 9.94317ZM31.8311 8.94763C32.1596 8.69054 32.5403 8.50279 32.9776 8.38618L32.7973 7.70982C32.2745 7.84921 31.8072 8.07746 31.3997 8.39637L31.8311 8.94763ZM32.985 8.38412C33.4459 8.25032 33.9487 8.182 34.4954 8.182V7.482C33.8902 7.482 33.321 7.55768 32.7899 7.71188L32.985 8.38412ZM34.4954 8.182C35.1012 8.182 35.5881 8.23665 35.9644 8.33797L36.1464 7.66203C35.6908 7.53935 35.1377 7.482 34.4954 7.482V8.182ZM35.9795 8.34167C36.4098 8.43728 36.7403 8.51605 36.9733 8.57818L37.1536 7.90182C36.9066 7.83595 36.5651 7.75471 36.1314 7.65833L35.9795 8.34167ZM36.7134 8.24V9.992H37.4134V8.24H36.7134ZM37.1421 9.65096C36.728 9.5554 36.3301 9.4599 35.9483 9.36445L35.7785 10.0435C36.1648 10.1401 36.5668 10.2366 36.9847 10.333L37.1421 9.65096ZM35.9483 9.36445C35.5244 9.25847 34.972 9.21 34.3034 9.21V9.91C34.9469 9.91 35.4345 9.95753 35.7785 10.0435L35.9483 9.36445ZM34.3034 9.21C33.903 9.21 33.5442 9.2705 33.2434 9.41084L33.5394 10.0452C33.7187 9.9615 33.9679 9.91 34.3034 9.91V9.21ZM33.2536 9.4063C32.9787 9.52408 32.7498 9.69724 32.5804 9.93014L33.1465 10.3419C33.2331 10.2228 33.3561 10.1239 33.5293 10.0497L33.2536 9.4063ZM32.5901 9.91736C32.428 10.1201 32.3177 10.3524 32.2584 10.6093L32.9405 10.7667C32.9772 10.6076 33.0429 10.4719 33.1367 10.3546L32.5901 9.91736ZM32.2535 10.6348C32.2186 10.8615 32.2014 11.0953 32.2014 11.336H32.9014C32.9014 11.1287 32.9162 10.9305 32.9454 10.7412L32.2535 10.6348ZM32.2014 11.336C32.2014 11.8477 32.3527 12.293 32.686 12.6316C33.0128 12.9634 33.4774 13.1549 34.0334 13.2418L34.1415 12.5502C33.6734 12.4771 33.3701 12.3286 33.1848 12.1404C33.0062 11.959 32.9014 11.7043 32.9014 11.336H32.2014ZM34.0299 13.2412C35.2466 13.444 36.0211 13.816 36.4382 14.3004L36.9687 13.8436C36.3937 13.176 35.4242 12.764 34.145 12.5508L34.0299 13.2412ZM36.4418 14.3045C36.8788 14.7961 37.1214 15.5178 37.1214 16.52H37.8214C37.8214 15.4102 37.5521 14.4999 36.965 13.8395L36.4418 14.3045ZM45.7893 19.352L46.0003 19.6313L46.0012 19.6305L45.7893 19.352ZM41.1093 20.024L41.178 19.6806L41.1669 19.6788L41.1093 20.024ZM39.9813 19.784H39.6313V20.0459L39.8826 20.1198L39.9813 19.784ZM39.9813 18.032L40.0572 17.6903L39.6313 17.5957V18.032H39.9813ZM40.5333 18.152L40.46 18.4942L40.4734 18.4971L40.4871 18.4989L40.5333 18.152ZM41.3013 18.272L41.2405 18.6167L41.2504 18.6184L41.2604 18.6196L41.3013 18.272ZM42.1413 18.368L42.1027 18.7159L42.1047 18.7161L42.1413 18.368ZM43.8213 18.272L43.9681 18.5899L43.9778 18.585L43.8213 18.272ZM44.3493 17.864L44.0784 17.6424L44.076 17.6454L44.3493 17.864ZM44.6613 17.288L44.9959 17.391L44.9978 17.3842L44.6613 17.288ZM44.4453 15.368L44.1592 15.57L44.1673 15.5806L44.4453 15.368ZM43.2453 14.792L43.3087 14.4478L43.3079 14.4476L43.2453 14.792ZM40.6293 13.64L40.3672 13.8722L40.3744 13.8799L40.6293 13.64ZM40.1973 9.8L40.5148 9.9474L40.5167 9.94317L40.1973 9.8ZM41.0373 8.672L40.8216 8.39631L40.8157 8.40111L41.0373 8.672ZM42.3093 8.048L42.3995 8.38626L42.4069 8.38412L42.3093 8.048ZM45.4773 8L45.3863 8.33797L45.3938 8.33998L45.4014 8.34167L45.4773 8ZM46.4853 8.24H46.8353V7.9711L46.5755 7.90182L46.4853 8.24ZM46.4853 9.992L46.4066 10.333L46.8353 10.432V9.992H46.4853ZM45.2853 9.704L45.3702 9.36445L45.2853 9.704ZM42.8133 9.728L42.9513 10.0499L42.9613 10.0452L42.8133 9.728ZM42.2853 10.136L42.5586 10.3546L42.5636 10.3484L42.5684 10.3419L42.2853 10.136ZM42.0213 10.688L41.6803 10.6093L41.6774 10.6219L41.6754 10.6348L42.0213 10.688ZM43.5093 12.896L43.5669 12.5507L43.5633 12.5502L43.5093 12.896ZM46.1253 14.072L45.8601 14.3004L45.8637 14.3045L46.1253 14.072ZM46.5433 16.52C46.5433 17.7888 46.193 18.605 45.5774 19.0735L46.0012 19.6305C46.8576 18.979 47.2433 17.9072 47.2433 16.52H46.5433ZM45.5783 19.0727C44.9378 19.5567 44.0446 19.818 42.8613 19.818V20.518C44.1421 20.518 45.2008 20.2353 46.0003 19.6313L45.5783 19.0727ZM42.8613 19.818C42.1879 19.818 41.6283 19.7709 41.178 19.6808L41.0407 20.3672C41.5503 20.4691 42.1588 20.518 42.8613 20.518V19.818ZM41.1669 19.6788C40.6924 19.5997 40.3323 19.5224 40.0801 19.4482L39.8826 20.1198C40.1743 20.2056 40.5662 20.2883 41.0518 20.3692L41.1669 19.6788ZM40.3313 19.784V18.032H39.6313V19.784H40.3313ZM39.9054 18.3737C40.0506 18.4059 40.2355 18.4461 40.46 18.4942L40.6066 17.8098C40.3831 17.7619 40.2 17.7221 40.0572 17.6903L39.9054 18.3737ZM40.4871 18.4989C40.7216 18.5302 40.9727 18.5694 41.2405 18.6167L41.3621 17.9273C41.086 17.8786 40.8251 17.8378 40.5796 17.8051L40.4871 18.4989ZM41.2604 18.6196C41.5332 18.6517 41.814 18.6838 42.1027 18.7159L42.18 18.0201C41.8927 17.9882 41.6134 17.9563 41.3422 17.9244L41.2604 18.6196ZM42.1047 18.7161C42.4201 18.7493 42.7284 18.766 43.0293 18.766V18.066C42.7543 18.066 42.4705 18.0507 42.178 18.0199L42.1047 18.7161ZM43.0293 18.766C43.3812 18.766 43.6995 18.7137 43.968 18.5898L43.6746 17.9542C43.5271 18.0223 43.3175 18.066 43.0293 18.066V18.766ZM43.9778 18.585C44.2373 18.4553 44.4568 18.29 44.6226 18.0826L44.076 17.6454C43.9859 17.758 43.8533 17.8647 43.6648 17.959L43.9778 18.585ZM44.6202 18.0856C44.7916 17.8762 44.9179 17.6442 44.9958 17.3909L44.3268 17.1851C44.2767 17.3478 44.195 17.4998 44.0784 17.6424L44.6202 18.0856ZM44.9978 17.3842C45.0697 17.1326 45.1073 16.8842 45.1073 16.64H44.4073C44.4073 16.8118 44.3809 16.9954 44.3248 17.1918L44.9978 17.3842ZM45.1073 16.64C45.1073 16.0348 45.0004 15.5177 44.7233 15.1554L44.1673 15.5806C44.3062 15.7623 44.4073 16.0932 44.4073 16.64H45.1073ZM44.7313 15.1662C44.4565 14.777 43.9375 14.5636 43.3087 14.4478L43.1819 15.1362C43.7691 15.2444 44.0501 15.415 44.1594 15.5698L44.7313 15.1662ZM43.3079 14.4476C42.1044 14.2288 41.3205 13.8637 40.8842 13.4001L40.3744 13.8799C40.9621 14.5043 41.9222 14.9072 43.1827 15.1364L43.3079 14.4476ZM40.8913 13.4079C40.4628 12.9241 40.2353 12.2843 40.2353 11.456H39.5353C39.5353 12.4197 39.8038 13.2359 40.3673 13.8721L40.8913 13.4079ZM40.2353 11.456C40.2353 10.835 40.334 10.3367 40.5148 9.94739L39.8799 9.65261C39.6446 10.1593 39.5353 10.765 39.5353 11.456H40.2353ZM40.5167 9.94317C40.7051 9.52283 40.9537 9.19259 41.2589 8.94288L40.8157 8.40111C40.4169 8.7274 40.1055 9.14916 39.8779 9.65683L40.5167 9.94317ZM41.253 8.94763C41.5815 8.69054 41.9622 8.50279 42.3995 8.38618L42.2191 7.70982C41.6964 7.84921 41.2291 8.07746 40.8216 8.39637L41.253 8.94763ZM42.4069 8.38412C42.8678 8.25032 43.3706 8.182 43.9173 8.182V7.482C43.312 7.482 42.7429 7.55768 42.2117 7.71188L42.4069 8.38412ZM43.9173 8.182C44.523 8.182 45.01 8.23665 45.3863 8.33797L45.5683 7.66203C45.1126 7.53935 44.5596 7.482 43.9173 7.482V8.182ZM45.4014 8.34167C45.8317 8.43728 46.1621 8.51605 46.3951 8.57818L46.5755 7.90182C46.3285 7.83595 45.987 7.75471 45.5532 7.65833L45.4014 8.34167ZM46.1353 8.24V9.992H46.8353V8.24H46.1353ZM46.564 9.65096C46.1499 9.5554 45.752 9.4599 45.3702 9.36445L45.2004 10.0435C45.5866 10.1401 45.9887 10.2366 46.4066 10.333L46.564 9.65096ZM45.3702 9.36445C44.9463 9.25847 44.3938 9.21 43.7253 9.21V9.91C44.3688 9.91 44.8564 9.95753 45.2004 10.0435L45.3702 9.36445ZM43.7253 9.21C43.3249 9.21 42.966 9.2705 42.6653 9.41084L42.9613 10.0452C43.1406 9.9615 43.3898 9.91 43.7253 9.91V9.21ZM42.6754 9.4063C42.4006 9.52408 42.1716 9.69724 42.0023 9.93014L42.5684 10.3419C42.655 10.2228 42.778 10.1239 42.9512 10.0497L42.6754 9.4063ZM42.012 9.91736C41.8498 10.1201 41.7396 10.3524 41.6803 10.6093L42.3624 10.7667C42.3991 10.6076 42.4648 10.4719 42.5586 10.3546L42.012 9.91736ZM41.6754 10.6348C41.6405 10.8615 41.6233 11.0953 41.6233 11.336H42.3233C42.3233 11.1287 42.3381 10.9305 42.3672 10.7412L41.6754 10.6348ZM41.6233 11.336C41.6233 11.8477 41.7746 12.293 42.1079 12.6316C42.4346 12.9634 42.8993 13.1549 43.4553 13.2418L43.5633 12.5502C43.0953 12.4771 42.792 12.3286 42.6067 12.1404C42.4281 11.959 42.3233 11.7043 42.3233 11.336H41.6233ZM43.4518 13.2412C44.6685 13.444 45.443 13.816 45.8601 14.3004L46.3905 13.8436C45.8156 13.176 44.8461 12.764 43.5669 12.5508L43.4518 13.2412ZM45.8637 14.3045C46.3006 14.7961 46.5433 15.5178 46.5433 16.52H47.2433C47.2433 15.4102 46.974 14.4999 46.3869 13.8395L45.8637 14.3045ZM51.7016 14.72V14.37H51.3443L51.3516 14.7271L51.7016 14.72ZM51.8696 16.64L51.5257 16.7066L51.5287 16.7195L51.8696 16.64ZM52.3016 17.768L52.5954 17.5779L52.3016 17.768ZM52.9256 18.32L52.7956 18.645L52.8051 18.6488L52.8149 18.652L52.9256 18.32ZM55.5656 18.32L55.6165 18.6664L55.6247 18.665L55.5656 18.32ZM56.9576 18.056H57.3076V17.6217L56.8832 17.714L56.9576 18.056ZM56.9576 19.784L57.0556 20.12L57.3076 20.0465V19.784H56.9576ZM55.4936 20.048L55.4559 19.6999L55.4454 19.7013L55.4936 20.048ZM52.1336 19.952L52.0415 20.2897L52.044 20.2903L52.1336 19.952ZM50.7896 19.088L50.5231 19.315L50.7896 19.088ZM49.9496 17.24L49.6089 17.3202L49.6092 17.3217L49.9496 17.24ZM49.9256 11.168L49.5855 11.0847L49.5841 11.0913L49.9256 11.168ZM50.7656 9.248L51.0466 9.45655L50.7656 9.248ZM52.1336 8.168L52.2668 8.49164L52.1336 8.168ZM56.9816 9.2L56.6879 9.3906L56.6919 9.39653L56.9816 9.2ZM57.8936 14.72V15.07H58.2436V14.72H57.8936ZM52.3256 10.28L52.0317 10.0899L52.3256 10.28ZM51.9176 11.384L52.2598 11.4573L52.2603 11.4549L51.9176 11.384ZM51.7256 13.088L51.3759 13.0717L51.3589 13.438H51.7256V13.088ZM55.9016 13.088V13.438H56.2516V13.088H55.9016ZM55.4696 10.304L55.1604 10.4683L55.1645 10.4756L55.4696 10.304ZM51.3516 14.7271C51.3678 15.5215 51.4247 16.1833 51.5259 16.7065L52.2132 16.5735C52.1224 16.1047 52.0673 15.4865 52.0515 14.7129L51.3516 14.7271ZM51.5287 16.7195C51.6456 17.2205 51.8015 17.6394 52.0077 17.9581L52.5954 17.5779C52.4496 17.3526 52.3175 17.0195 52.2104 16.5605L51.5287 16.7195ZM52.0077 17.9581C52.213 18.2754 52.473 18.5159 52.7956 18.645L53.0555 17.995C52.8981 17.9321 52.7421 17.8046 52.5954 17.5779L52.0077 17.9581ZM52.8149 18.652C53.0969 18.7461 53.4073 18.79 53.7416 18.79V18.09C53.4678 18.09 53.2342 18.0539 53.0362 17.988L52.8149 18.652ZM53.7416 18.79C54.427 18.79 55.0524 18.7492 55.6165 18.6663L55.5146 17.9737C54.9907 18.0508 54.4001 18.09 53.7416 18.09V18.79ZM55.6247 18.665C56.1875 18.5685 56.657 18.4795 57.0319 18.398L56.8832 17.714C56.5221 17.7925 56.0636 17.8795 55.5064 17.975L55.6247 18.665ZM56.6076 18.056V19.784H57.3076V18.056H56.6076ZM56.8596 19.448C56.5023 19.5522 56.0364 19.6373 55.4559 19.7L55.5312 20.396C56.1348 20.3307 56.6448 20.2398 57.0556 20.12L56.8596 19.448ZM55.4454 19.7013C54.8803 19.7798 54.393 19.818 53.9816 19.818V20.518C54.4341 20.518 54.9548 20.4762 55.5417 20.3947L55.4454 19.7013ZM53.9816 19.818C53.3174 19.818 52.7323 19.7484 52.2231 19.6137L52.044 20.2903C52.6229 20.4436 53.2698 20.518 53.9816 20.518V19.818ZM52.2257 19.6143C51.7682 19.4896 51.3801 19.2415 51.056 18.861L50.5231 19.315C50.935 19.7985 51.4429 20.1264 52.0415 20.2897L52.2257 19.6143ZM51.056 18.861C50.7361 18.4855 50.4744 17.9271 50.2899 17.1583L49.6092 17.3217C49.8087 18.1529 50.107 18.8265 50.5231 19.315L51.056 18.861ZM50.2903 17.1598C50.107 16.381 50.0116 15.3311 50.0116 14H49.3116C49.3116 15.3569 49.4081 16.467 49.6089 17.3202L50.2903 17.1598ZM50.0116 14C50.0116 12.9129 50.0984 11.9961 50.2671 11.2447L49.5841 11.0913C49.4008 11.9079 49.3116 12.8791 49.3116 14H50.0116ZM50.2655 11.2513C50.4497 10.4993 50.7135 9.90554 51.0466 9.45655L50.4845 9.03945C50.0816 9.58246 49.7855 10.2687 49.5856 11.0847L50.2655 11.2513ZM51.0466 9.45655C51.3787 9.00897 51.7846 8.69019 52.2668 8.49164L52.0003 7.84436C51.3945 8.09381 50.8884 8.49503 50.4845 9.03945L51.0466 9.45655ZM52.2668 8.49164C52.7602 8.28847 53.3453 8.182 54.0296 8.182V7.482C53.2738 7.482 52.5949 7.59953 52.0003 7.84436L52.2668 8.49164ZM54.0296 8.182C55.3227 8.182 56.1778 8.60463 56.688 9.39056L57.2751 9.00943C56.6013 7.97136 55.4884 7.482 54.0296 7.482V8.182ZM56.6919 9.39653C57.2463 10.2134 57.5436 11.3753 57.5436 12.92H58.2436C58.2436 11.2967 57.9328 9.97856 57.2712 9.00347L56.6919 9.39653ZM57.5436 12.92V14.72H58.2436V12.92H57.5436ZM57.8936 14.37H51.7016V15.07H57.8936V14.37ZM53.9816 9.186C53.5651 9.186 53.1893 9.24652 52.8643 9.38036L53.1308 10.0276C53.3498 9.93747 53.63 9.886 53.9816 9.886V9.186ZM52.8643 9.38036C52.5198 9.52222 52.2423 9.76439 52.0317 10.0899L52.6194 10.4701C52.7608 10.2516 52.9313 10.1098 53.1308 10.0276L52.8643 9.38036ZM52.0317 10.0899C51.824 10.4109 51.6759 10.8245 51.5748 11.3131L52.2603 11.4549C52.3512 11.0155 52.4752 10.6931 52.6194 10.4701L52.0317 10.0899ZM51.5753 11.3107C51.4738 11.7843 51.4084 12.3731 51.3759 13.0717L52.0752 13.1043C52.1067 12.4269 52.1693 11.8797 52.2598 11.4573L51.5753 11.3107ZM51.7256 13.438H55.9016V12.738H51.7256V13.438ZM56.2516 13.088V12.44H55.5516V13.088H56.2516ZM56.2516 12.44C56.2516 11.4982 56.104 10.718 55.7746 10.1324L55.1645 10.4756C55.4111 10.914 55.5516 11.5578 55.5516 12.44H56.2516ZM55.7787 10.1398C55.4303 9.48402 54.7939 9.186 53.9816 9.186V9.886C54.6092 9.886 54.9649 10.1 55.1605 10.4682L55.7787 10.1398ZM61.2481 20H60.8981V20.35H61.2481V20ZM61.2481 8V7.65H60.8981V8H61.2481ZM62.9281 8L63.274 7.9462L63.2279 7.65H62.9281V8ZM63.0961 9.08L62.7503 9.1338L62.8602 9.84068L63.3509 9.32003L63.0961 9.08ZM67.7761 8.096L67.6519 8.4234L67.662 8.42688L67.7761 8.096ZM68.8801 8.864L68.6032 9.07801L68.6086 9.08503L68.6144 9.09178L68.8801 8.864ZM69.4801 10.184L69.1371 10.2546L69.14 10.2665L69.4801 10.184ZM69.6721 20V20.35H70.0221V20H69.6721ZM67.6321 20H67.2821V20.35H67.6321V20ZM67.2481 10.136L66.9512 10.3216L66.9569 10.3301L67.2481 10.136ZM64.7281 9.752L64.5923 9.42937L64.586 9.43217L64.7281 9.752ZM63.9601 10.256L63.7218 9.99935L63.7126 10.0085L63.9601 10.256ZM63.4561 10.928L63.1472 10.7632L63.1431 10.7715L63.4561 10.928ZM63.2881 20V20.35H63.6381V20H63.2881ZM61.5981 20V8H60.8981V20H61.5981ZM61.2481 8.35H62.9281V7.65H61.2481V8.35ZM62.5823 8.0538L62.7503 9.1338L63.442 9.0262L63.274 7.9462L62.5823 8.0538ZM63.3509 9.32003C64.0661 8.56099 64.9567 8.182 66.0481 8.182V7.482C64.7716 7.482 63.6941 7.93501 62.8414 8.83997L63.3509 9.32003ZM66.0481 8.182C66.7089 8.182 67.2397 8.26688 67.652 8.42325L67.9003 7.76875C67.3845 7.57312 66.7633 7.482 66.0481 7.482V8.182ZM67.662 8.42688C68.0684 8.56702 68.3772 8.78553 68.6032 9.07801L69.1571 8.64999C68.8391 8.23847 68.4118 7.94498 67.8902 7.76512L67.662 8.42688ZM68.6144 9.09178C68.8551 9.37267 69.0343 9.75409 69.1373 10.2546L69.8229 10.1134C69.702 9.52591 69.4811 9.02733 69.1459 8.63622L68.6144 9.09178ZM69.14 10.2665C69.2596 10.7599 69.3221 11.3627 69.3221 12.08H70.0221C70.0221 11.3253 69.9567 10.6641 69.8203 10.1015L69.14 10.2665ZM69.3221 12.08V20H70.0221V12.08H69.3221ZM69.6721 19.65H67.6321V20.35H69.6721V19.65ZM67.9821 20V11.84H67.2821V20H67.9821ZM67.9821 11.84C67.9821 11.0584 67.8509 10.4092 67.5393 9.94185L66.9569 10.3301C67.1574 10.6308 67.2821 11.1176 67.2821 11.84H67.9821ZM67.5449 9.9505C67.2039 9.40494 66.5166 9.21 65.6881 9.21V9.91C66.4596 9.91 66.8123 10.0991 66.9513 10.3215L67.5449 9.9505ZM65.6881 9.21C65.3064 9.21 64.9401 9.28298 64.5923 9.42943L64.8639 10.0746C65.1241 9.96502 65.3979 9.91 65.6881 9.91V9.21ZM64.586 9.43217C64.2638 9.57535 63.9751 9.76444 63.722 9.99952L64.1983 10.5125C64.3931 10.3316 64.6164 10.1846 64.8703 10.0718L64.586 9.43217ZM63.7126 10.0085C63.4822 10.2389 63.2928 10.4904 63.1473 10.7633L63.7649 11.0927C63.8754 10.8856 64.022 10.6891 64.2076 10.5035L63.7126 10.0085ZM63.1431 10.7715C63.0097 11.0383 62.9381 11.3155 62.9381 11.6H63.6381C63.6381 11.4365 63.6786 11.2657 63.7692 11.0845L63.1431 10.7715ZM62.9381 11.6V20H63.6381V11.6H62.9381ZM63.2881 19.65H61.2481V20.35H63.2881V19.65ZM80.9488 15.248L81.1734 15.5164L81.1739 15.516L80.9488 15.248ZM75.7168 16.088L75.7877 15.7453L75.5138 15.6886L75.3981 15.9432L75.7168 16.088ZM75.5967 17.792L75.2647 17.9027L75.3521 18.1649L75.6275 18.1406L75.5967 17.792ZM77.2048 17.672L77.2259 18.0215L77.2364 18.0206L77.2048 17.672ZM80.1807 17.744L80.1121 18.0872L80.1142 18.0876L80.1807 17.744ZM81.4528 18.296L81.2387 18.5731L81.2469 18.5791L81.4528 18.296ZM82.2688 19.376L81.9452 19.5099L81.9494 19.5192L82.2688 19.376ZM82.2207 22.712L81.9176 22.5371L81.9137 22.5439L81.91 22.5509L82.2207 22.712ZM81.2607 23.768L81.0692 23.475L81.0639 23.4786L81.2607 23.768ZM79.8207 24.368L79.7428 24.0268L79.7406 24.0273L79.8207 24.368ZM75.6208 24.392L75.6581 24.0438L75.6466 24.043L75.6208 24.392ZM74.3727 24.272L74.3293 24.6193L74.331 24.6195L74.3727 24.272ZM73.4607 24.128H73.1107V24.4109L73.3874 24.4702L73.4607 24.128ZM73.4607 22.4L73.5153 22.0543L73.1107 21.9904V22.4H73.4607ZM74.4928 22.544L74.5481 22.1982L74.5362 22.1967L74.4928 22.544ZM75.7168 22.688L75.6899 23.037L75.6909 23.037L75.7168 22.688ZM77.0127 22.76L77.0386 22.4107L77.0257 22.4102L77.0127 22.76ZM79.9648 22.328L79.736 22.0631L79.7295 22.0687L79.7234 22.0746L79.9648 22.328ZM80.0608 19.832L79.8062 20.0724L79.8133 20.0795L80.0608 19.832ZM77.6127 19.424L77.6286 19.7736L77.6127 19.424ZM76.5088 19.496L76.524 19.8459L76.5378 19.8448L76.5088 19.496ZM75.4047 19.568L75.3744 19.2193L75.3731 19.2194L75.4047 19.568ZM74.5167 19.664L74.2769 19.9189L74.3981 20.0329L74.563 20.0109L74.5167 19.664ZM73.7968 18.632L73.4751 18.7699L73.4781 18.7769L73.4814 18.7838L73.7968 18.632ZM73.6768 16.208L74.0071 16.3236L73.6768 16.208ZM74.1568 15.392L74.4132 15.6302L74.6763 15.3468L74.3683 15.1132L74.1568 15.392ZM73.1728 14.024L72.8387 14.129L72.8417 14.1375L73.1728 14.024ZM73.3167 9.896L73.0037 9.73947L73.3167 9.896ZM74.3968 8.624L74.2049 8.3312L74.2002 8.33438L74.3968 8.624ZM75.9808 8L75.9173 7.65579L75.9157 7.6561L75.9808 8ZM79.7728 8.168L79.6395 8.49164L79.7117 8.52136L79.7896 8.51759L79.7728 8.168ZM83.2528 8H83.6028V7.6327L83.2359 7.65041L83.2528 8ZM83.2528 9.8L83.2375 10.1497L83.6028 10.1655V9.8H83.2528ZM81.5967 9.728L81.612 9.37833L80.9985 9.35166L81.2881 9.89308L81.5967 9.728ZM79.9888 11.072L79.6463 11.1441L79.6485 11.155L79.6515 11.1657L79.9888 11.072ZM78.8368 9.752L78.6869 10.0683L78.6967 10.0729L78.7068 10.077L78.8368 9.752ZM75.5247 10.184L75.782 10.4214L75.7863 10.4165L75.5247 10.184ZM75.0447 13.16L74.7023 13.2321L74.7045 13.243L74.7075 13.2537L75.0447 13.16ZM75.4287 13.904L75.1616 14.1301L75.4287 13.904ZM76.1488 14.408L76.0129 14.7306L76.0203 14.7337L76.0278 14.7364L76.1488 14.408ZM78.4047 14.48L78.3421 14.1356L78.3393 14.1362L78.4047 14.48ZM79.2927 14.12L79.4997 14.4023L79.5027 14.4L79.2927 14.12ZM79.8928 13.328L79.5711 13.1901L79.8928 13.328ZM81.7988 12.2C81.7988 13.4901 81.422 14.3934 80.7236 14.98L81.1739 15.516C82.0755 14.7586 82.4987 13.6299 82.4987 12.2H81.7988ZM80.7241 14.9796C80.0316 15.559 78.9137 15.882 77.3008 15.882V16.582C78.9838 16.582 80.2979 16.249 81.1734 15.5164L80.7241 14.9796ZM77.3008 15.882C76.727 15.882 76.2234 15.8354 75.7877 15.7453L75.6458 16.4307C76.1381 16.5326 76.6905 16.582 77.3008 16.582V15.882ZM75.3981 15.9432C75.2206 16.3338 75.1267 16.727 75.1267 17.12H75.8268C75.8268 16.841 75.893 16.5462 76.0354 16.2328L75.3981 15.9432ZM75.1267 17.12C75.1267 17.3727 75.1753 17.6344 75.2647 17.9027L75.9288 17.6813C75.8582 17.4696 75.8268 17.2833 75.8268 17.12H75.1267ZM75.6275 18.1406C76.1684 18.0929 76.7012 18.0532 77.2259 18.0214L77.1836 17.3226C76.6523 17.3548 76.1131 17.3951 75.566 17.4434L75.6275 18.1406ZM77.2364 18.0206C77.7571 17.9732 78.2101 17.95 78.5967 17.95V17.25C78.1834 17.25 77.7084 17.2748 77.1731 17.3234L77.2364 18.0206ZM78.5967 17.95C79.1536 17.95 79.6583 17.9964 80.1121 18.0872L80.2494 17.4008C79.7432 17.2996 79.1919 17.25 78.5967 17.25V17.95ZM80.1142 18.0876C80.5639 18.1746 80.9356 18.3387 81.2387 18.573L81.6668 18.0191C81.2659 17.7093 80.7896 17.5054 80.2473 17.4004L80.1142 18.0876ZM81.2469 18.5791C81.5391 18.7916 81.7742 19.0961 81.9453 19.5098L82.5922 19.2422C82.3793 18.7279 82.0704 18.3124 81.6586 18.0129L81.2469 18.5791ZM81.9494 19.5192C82.1303 19.9227 82.2308 20.469 82.2308 21.176H82.9307C82.9307 20.411 82.8232 19.7573 82.5881 19.2328L81.9494 19.5192ZM82.2308 21.176C82.2308 21.7387 82.1198 22.1867 81.9176 22.5371L82.5239 22.8869C82.8017 22.4053 82.9307 21.8293 82.9307 21.176H82.2308ZM81.91 22.5509C81.7144 22.9282 81.4359 23.2353 81.0692 23.4751L81.4523 24.0609C81.9176 23.7567 82.2791 23.3598 82.5315 22.8731L81.91 22.5509ZM81.0639 23.4786C80.706 23.7219 80.2681 23.9067 79.7428 24.0268L79.8987 24.7092C80.4934 24.5733 81.0154 24.3581 81.4576 24.0574L81.0639 23.4786ZM79.7406 24.0273C79.2263 24.1483 78.6616 24.21 78.0448 24.21V24.91C78.7079 24.91 79.3272 24.8437 79.9009 24.7087L79.7406 24.0273ZM78.0448 24.21C77.7521 24.21 77.3933 24.1946 76.9666 24.163L76.9149 24.861C77.3522 24.8934 77.7294 24.91 78.0448 24.91V24.21ZM76.9666 24.163C76.5386 24.1313 76.1024 24.0916 75.658 24.044L75.5835 24.74C76.0351 24.7884 76.4789 24.8288 76.9149 24.861L76.9666 24.163ZM75.6466 24.043C75.2195 24.0113 74.8088 23.9718 74.4145 23.9245L74.331 24.6195C74.7367 24.6682 75.158 24.7087 75.5949 24.741L75.6466 24.043ZM74.4162 23.9247C74.0364 23.8772 73.7438 23.8307 73.5341 23.7858L73.3874 24.4702C73.6257 24.5213 73.9411 24.5708 74.3293 24.6193L74.4162 23.9247ZM73.8108 24.128V22.4H73.1107V24.128H73.8108ZM73.4062 22.7457C73.7147 22.7944 74.0625 22.8429 74.4493 22.8913L74.5362 22.1967C74.155 22.1491 73.8148 22.1016 73.5153 22.0543L73.4062 22.7457ZM74.4375 22.8896C74.8472 22.9552 75.2647 23.0043 75.6899 23.037L75.7436 22.339C75.3368 22.3077 74.9383 22.2608 74.548 22.1984L74.4375 22.8896ZM75.6909 23.037C76.1272 23.0694 76.5635 23.0936 76.9998 23.1098L77.0257 22.4102C76.598 22.3944 76.1703 22.3706 75.7426 22.339L75.6909 23.037ZM76.9869 23.109C77.4264 23.1416 77.8431 23.158 78.2367 23.158V22.458C77.8624 22.458 77.4631 22.4424 77.0386 22.411L76.9869 23.109ZM78.2367 23.158C79.0801 23.158 79.7707 22.9961 80.2061 22.5814L79.7234 22.0746C79.4868 22.2999 79.0254 22.458 78.2367 22.458V23.158ZM80.1935 22.5929C80.6223 22.2226 80.8428 21.742 80.8428 21.176H80.1428C80.1428 21.538 80.0112 21.8254 79.736 22.0631L80.1935 22.5929ZM80.8428 21.176C80.8428 20.5205 80.6881 19.9644 80.3082 19.5845L79.8133 20.0795C80.0094 20.2756 80.1428 20.6155 80.1428 21.176H80.8428ZM80.3152 19.5917C79.9361 19.1903 79.2741 19.05 78.4768 19.05V19.75C79.2474 19.75 79.6413 19.8977 79.8063 20.0723L80.3152 19.5917ZM78.4768 19.05C78.2454 19.05 77.9515 19.0582 77.5969 19.0744L77.6286 19.7736C77.978 19.7578 78.2601 19.75 78.4768 19.75V19.05ZM77.5969 19.0744C77.2401 19.0906 76.8677 19.1149 76.4797 19.1472L76.5378 19.8448C76.9178 19.8131 77.2814 19.7894 77.6286 19.7736L77.5969 19.0744ZM76.4935 19.1463C76.1205 19.1625 75.7474 19.1869 75.3744 19.2193L75.4351 19.9167C75.798 19.8851 76.161 19.8615 76.524 19.8457L76.4935 19.1463ZM75.3731 19.2194C75.0182 19.2517 74.717 19.2842 74.4705 19.3171L74.563 20.0109C74.7965 19.9798 75.0873 19.9483 75.4364 19.9166L75.3731 19.2194ZM74.7566 19.4091C74.5234 19.1896 74.3065 18.8839 74.1121 18.4802L73.4814 18.7838C73.703 19.2441 73.9661 19.6264 74.2769 19.9189L74.7566 19.4091ZM74.1185 18.4941C73.9394 18.0763 73.8587 17.7159 73.8587 17.408H73.1588C73.1588 17.8361 73.2701 18.2917 73.4751 18.7699L74.1185 18.4941ZM73.8587 17.408C73.8587 16.9523 73.9123 16.5945 74.0071 16.3236L73.3464 16.0924C73.2172 16.4615 73.1588 16.9037 73.1588 17.408H73.8587ZM74.0071 16.3236C74.1049 16.0441 74.2414 15.8152 74.4132 15.6302L73.9003 15.1538C73.6561 15.4168 73.4726 15.7319 73.3464 16.0924L74.0071 16.3236ZM74.3683 15.1132C73.9606 14.8039 73.6737 14.4059 73.5038 13.9105L72.8417 14.1375C73.0558 14.7621 73.4249 15.2761 73.9452 15.6708L74.3683 15.1132ZM73.5066 13.9191C73.3442 13.4022 73.2588 12.7676 73.2588 12.008H72.5587C72.5587 12.8164 72.6493 13.5258 72.8389 14.1289L73.5066 13.9191ZM73.2588 12.008C73.2588 11.177 73.3901 10.5319 73.6298 10.0525L73.0037 9.73947C72.6994 10.3481 72.5587 11.111 72.5587 12.008H73.2588ZM73.6298 10.0525C73.8784 9.5554 74.2008 9.17997 74.5933 8.91362L74.2002 8.33438C73.6967 8.67603 73.2991 9.1486 73.0037 9.73947L73.6298 10.0525ZM74.5886 8.91676C75.0109 8.64007 75.4951 8.44809 76.0458 8.3439L75.9157 7.6561C75.2824 7.77591 74.7106 7.99993 74.2049 8.33124L74.5886 8.91676ZM76.0442 8.34421C76.6295 8.23638 77.2482 8.182 77.9007 8.182V7.482C77.2093 7.482 76.548 7.53962 75.9173 7.65579L76.0442 8.34421ZM77.9007 8.182C78.5678 8.182 79.1452 8.28811 79.6395 8.49164L79.906 7.84436C79.3123 7.59989 78.6417 7.482 77.9007 7.482V8.182ZM79.7896 8.51759L83.2696 8.34959L83.2359 7.65041L79.7559 7.81841L79.7896 8.51759ZM82.9027 8V9.8H83.6028V8H82.9027ZM83.268 9.45033L81.612 9.37833L81.5816 10.0777L83.2375 10.1497L83.268 9.45033ZM81.2881 9.89308C81.6234 10.5199 81.7988 11.2845 81.7988 12.2H82.4987C82.4987 11.1955 82.3061 10.3121 81.9054 9.56292L81.2881 9.89308ZM80.4587 12.008C80.4587 11.6442 80.4154 11.3003 80.326 10.9783L79.6515 11.1657C79.7221 11.4197 79.7588 11.6998 79.7588 12.008H80.4587ZM80.3312 10.9999C80.2558 10.6415 80.1028 10.3232 79.8705 10.0522L79.339 10.5078C79.4907 10.6848 79.5937 10.8945 79.6463 11.1441L80.3312 10.9999ZM79.8705 10.0522C79.636 9.77867 79.3303 9.57247 78.9667 9.42703L78.7068 10.077C78.9832 10.1875 79.1895 10.3333 79.339 10.5078L79.8705 10.0522ZM78.9866 9.43569C78.6202 9.26213 78.172 9.186 77.6608 9.186V9.886C78.1095 9.886 78.4453 9.95387 78.6869 10.0683L78.9866 9.43569ZM77.6608 9.186C76.5951 9.186 75.7507 9.40304 75.2632 9.95147L75.7863 10.4165C76.0668 10.101 76.6464 9.886 77.6608 9.886V9.186ZM75.2676 9.9466C74.7957 10.4578 74.5987 11.237 74.5987 12.2H75.2988C75.2988 11.307 75.4858 10.7422 75.7819 10.4214L75.2676 9.9466ZM74.5987 12.2C74.5987 12.5583 74.6329 12.9026 74.7023 13.2321L75.3872 13.0879C75.3286 12.8094 75.2988 12.5137 75.2988 12.2H74.5987ZM74.7075 13.2537C74.7997 13.5856 74.9499 13.8799 75.1616 14.1301L75.6959 13.6779C75.5556 13.5121 75.4498 13.3104 75.382 13.0663L74.7075 13.2537ZM75.1616 14.1301C75.3799 14.3881 75.6687 14.5856 76.0129 14.7306L76.2846 14.0854C76.0208 13.9744 75.8296 13.8359 75.6959 13.6779L75.1616 14.1301ZM76.0278 14.7364C76.3833 14.8674 76.8118 14.926 77.3008 14.926V14.226C76.8617 14.226 76.5222 14.1726 76.2697 14.0796L76.0278 14.7364ZM77.3008 14.926C77.7191 14.926 78.1094 14.8926 78.4702 14.8238L78.3393 14.1362C78.0281 14.1954 77.6824 14.226 77.3008 14.226V14.926ZM78.4674 14.8244C78.8612 14.7528 79.2091 14.6153 79.4997 14.4022L79.0858 13.8378C78.8964 13.9767 78.6524 14.0792 78.3421 14.1356L78.4674 14.8244ZM79.5027 14.4C79.8144 14.1662 80.0498 13.8501 80.2145 13.4659L79.5711 13.1901C79.4477 13.4779 79.2831 13.6898 79.0827 13.84L79.5027 14.4ZM80.2145 13.4659C80.3839 13.0704 80.4587 12.5784 80.4587 12.008H79.7588C79.7588 12.5256 79.6896 12.9136 79.5711 13.1901L80.2145 13.4659ZM87.5844 14.72V14.37H87.2272L87.2345 14.7271L87.5844 14.72ZM87.7524 16.64L87.4085 16.7066L87.4115 16.7195L87.7524 16.64ZM88.1844 17.768L88.4782 17.5779L88.1844 17.768ZM88.8084 18.32L88.6784 18.645L88.6879 18.6488L88.6977 18.652L88.8084 18.32ZM91.4484 18.32L91.4993 18.6664L91.5075 18.665L91.4484 18.32ZM92.8404 18.056H93.1904V17.6217L92.766 17.714L92.8404 18.056ZM92.8404 19.784L92.9384 20.12L93.1904 20.0465V19.784H92.8404ZM91.3764 20.048L91.3387 19.6999L91.3282 19.7013L91.3764 20.048ZM88.0164 19.952L87.9243 20.2897L87.9268 20.2903L88.0164 19.952ZM86.6724 19.088L86.4059 19.315L86.6724 19.088ZM85.8324 17.24L85.4917 17.3202L85.492 17.3217L85.8324 17.24ZM85.8084 11.168L85.4684 11.0847L85.4669 11.0913L85.8084 11.168ZM86.6484 9.248L86.9295 9.45655L86.6484 9.248ZM88.0164 8.168L88.1496 8.49164L88.0164 8.168ZM92.8644 9.2L92.5707 9.3906L92.5748 9.39653L92.8644 9.2ZM93.7764 14.72V15.07H94.1264V14.72H93.7764ZM88.2084 10.28L87.9145 10.0899L88.2084 10.28ZM87.8004 11.384L88.1426 11.4573L88.1431 11.4549L87.8004 11.384ZM87.6084 13.088L87.2588 13.0717L87.2417 13.438H87.6084V13.088ZM91.7844 13.088V13.438H92.1344V13.088H91.7844ZM91.3524 10.304L91.0432 10.4683L91.0473 10.4756L91.3524 10.304ZM87.2345 14.7271C87.2507 15.5215 87.3075 16.1833 87.4088 16.7065L88.096 16.5735C88.0053 16.1047 87.9501 15.4865 87.9343 14.7129L87.2345 14.7271ZM87.4115 16.7195C87.5284 17.2205 87.6843 17.6394 87.8905 17.9581L88.4782 17.5779C88.3325 17.3526 88.2003 17.0195 88.0932 16.5605L87.4115 16.7195ZM87.8905 17.9581C88.0958 18.2754 88.3558 18.5159 88.6784 18.645L88.9384 17.995C88.781 17.9321 88.6249 17.8046 88.4782 17.5779L87.8905 17.9581ZM88.6977 18.652C88.9797 18.7461 89.2901 18.79 89.6244 18.79V18.09C89.3506 18.09 89.117 18.0539 88.9191 17.988L88.6977 18.652ZM89.6244 18.79C90.3098 18.79 90.9352 18.7492 91.4993 18.6663L91.3975 17.9737C90.8735 18.0508 90.2829 18.09 89.6244 18.09V18.79ZM91.5075 18.665C92.0703 18.5685 92.5398 18.4795 92.9147 18.398L92.766 17.714C92.4049 17.7925 91.9464 17.8795 91.3892 17.975L91.5075 18.665ZM92.4904 18.056V19.784H93.1904V18.056H92.4904ZM92.7424 19.448C92.3851 19.5522 91.9192 19.6373 91.3388 19.7L91.414 20.396C92.0176 20.3307 92.5276 20.2398 92.9384 20.12L92.7424 19.448ZM91.3282 19.7013C90.7631 19.7798 90.2758 19.818 89.8644 19.818V20.518C90.3169 20.518 90.8376 20.4762 91.4245 20.3947L91.3282 19.7013ZM89.8644 19.818C89.2002 19.818 88.6151 19.7484 88.1059 19.6137L87.9268 20.2903C88.5057 20.4436 89.1526 20.518 89.8644 20.518V19.818ZM88.1085 19.6143C87.651 19.4896 87.2629 19.2415 86.9388 18.861L86.4059 19.315C86.8178 19.7985 87.3257 20.1264 87.9243 20.2897L88.1085 19.6143ZM86.9388 18.861C86.6189 18.4855 86.3572 17.9271 86.1727 17.1583L85.492 17.3217C85.6915 18.1529 85.9898 18.8265 86.4059 19.315L86.9388 18.861ZM86.1731 17.1598C85.9898 16.381 85.8944 15.3311 85.8944 14H85.1944C85.1944 15.3569 85.2909 16.467 85.4917 17.3202L86.1731 17.1598ZM85.8944 14C85.8944 12.9129 85.9812 11.9961 86.1499 11.2447L85.4669 11.0913C85.2836 11.9079 85.1944 12.8791 85.1944 14H85.8944ZM86.1483 11.2513C86.3325 10.4993 86.5963 9.90554 86.9295 9.45655L86.3673 9.03945C85.9644 9.58246 85.6683 10.2687 85.4684 11.0847L86.1483 11.2513ZM86.9295 9.45655C87.2615 9.00897 87.6674 8.69019 88.1496 8.49164L87.8831 7.84436C87.2773 8.09381 86.7712 8.49503 86.3673 9.03945L86.9295 9.45655ZM88.1496 8.49164C88.6431 8.28847 89.2281 8.182 89.9124 8.182V7.482C89.1566 7.482 88.4777 7.59953 87.8831 7.84436L88.1496 8.49164ZM89.9124 8.182C91.2055 8.182 92.0606 8.60463 92.5708 9.39056L93.158 9.00943C92.4841 7.97136 91.3712 7.482 89.9124 7.482V8.182ZM92.5748 9.39653C93.1291 10.2134 93.4264 11.3753 93.4264 12.92H94.1264C94.1264 11.2967 93.8157 9.97856 93.154 9.00347L92.5748 9.39653ZM93.4264 12.92V14.72H94.1264V12.92H93.4264ZM93.7764 14.37H87.5844V15.07H93.7764V14.37ZM89.8644 9.186C89.4479 9.186 89.0721 9.24652 88.7471 9.38036L89.0136 10.0276C89.2326 9.93747 89.5128 9.886 89.8644 9.886V9.186ZM88.7471 9.38036C88.4026 9.52222 88.1251 9.76439 87.9145 10.0899L88.5022 10.4701C88.6436 10.2516 88.8142 10.1098 89.0136 10.0276L88.7471 9.38036ZM87.9145 10.0899C87.7068 10.4109 87.5587 10.8245 87.4576 11.3131L88.1431 11.4549C88.234 11.0155 88.358 10.6931 88.5022 10.4701L87.9145 10.0899ZM87.4581 11.3107C87.3567 11.7843 87.2913 12.3731 87.2588 13.0717L87.958 13.1043C87.9895 12.4269 88.0521 11.8797 88.1426 11.4573L87.4581 11.3107ZM87.6084 13.438H91.7844V12.738H87.6084V13.438ZM92.1344 13.088V12.44H91.4344V13.088H92.1344ZM92.1344 12.44C92.1344 11.4982 91.9868 10.718 91.6574 10.1324L91.0473 10.4756C91.2939 10.914 91.4344 11.5578 91.4344 12.44H92.1344ZM91.6615 10.1398C91.3131 9.48402 90.6767 9.186 89.8644 9.186V9.886C90.4921 9.886 90.8477 10.1 91.0433 10.4682L91.6615 10.1398ZM97.1309 20H96.7809V20.35H97.1309V20ZM97.1309 8V7.65H96.7809V8H97.1309ZM98.8109 8L99.1585 7.95911L99.1222 7.65H98.8109V8ZM98.9549 9.224L98.6073 9.26489L98.72 10.2228L99.2479 9.41554L98.9549 9.224ZM99.9629 8.216L100.152 8.51079L99.9629 8.216ZM102.195 7.88L102.142 8.22593L102.155 8.22795L102.168 8.22897L102.195 7.88ZM102.723 7.952H103.073V7.67124L102.799 7.61033L102.723 7.952ZM102.723 10.088L102.644 10.429L103.073 10.528V10.088H102.723ZM102.003 9.944L101.938 10.288L101.942 10.2887L102.003 9.944ZM100.275 10.112L100.097 9.81021L100.089 9.8152L100.275 10.112ZM99.6269 10.76L99.3331 10.5698L99.3301 10.5745L99.6269 10.76ZM99.2669 11.648L98.9262 11.5669L98.9237 11.5794L99.2669 11.648ZM99.1709 20V20.35H99.5209V20H99.1709ZM97.4809 20V8H96.7809V20H97.4809ZM97.1309 8.35H98.8109V7.65H97.1309V8.35ZM98.4633 8.04089L98.6073 9.26489L99.3025 9.1831L99.1585 7.95911L98.4633 8.04089ZM99.2479 9.41554C99.4941 9.03897 99.7952 8.73889 100.152 8.51079L99.7743 7.9212C99.3307 8.20511 98.9598 8.57703 98.662 9.03246L99.2479 9.41554ZM100.152 8.51079C100.483 8.29879 100.909 8.182 101.451 8.182V7.482C100.809 7.482 100.243 7.62121 99.7743 7.9212L100.152 8.51079ZM101.451 8.182C101.727 8.182 101.956 8.19742 102.142 8.22593L102.248 7.53407C102.017 7.49858 101.751 7.482 101.451 7.482V8.182ZM102.168 8.22897C102.366 8.24417 102.524 8.26639 102.647 8.29366L102.799 7.61033C102.634 7.57361 102.44 7.54783 102.222 7.53103L102.168 8.22897ZM102.373 7.952V10.088H103.073V7.952H102.373ZM102.802 9.74696C102.586 9.69727 102.34 9.64809 102.064 9.59933L101.942 10.2887C102.21 10.3359 102.444 10.3827 102.644 10.429L102.802 9.74696ZM102.067 9.59999C101.794 9.54863 101.532 9.522 101.283 9.522V10.222C101.482 10.222 101.7 10.2434 101.938 10.288L102.067 9.59999ZM101.283 9.522C100.837 9.522 100.436 9.61127 100.097 9.81032L100.452 10.4137C100.658 10.2927 100.929 10.222 101.283 10.222V9.522ZM100.089 9.8152C99.7868 10.0043 99.5349 10.258 99.3331 10.5699L99.9208 10.9501C100.071 10.718 100.251 10.5397 100.46 10.4088L100.089 9.8152ZM99.3301 10.5745C99.1473 10.867 99.014 11.1992 98.9265 11.5669L99.6074 11.7291C99.6799 11.4248 99.7865 11.165 99.9237 10.9455L99.3301 10.5745ZM98.9237 11.5794C98.8553 11.9215 98.8209 12.2645 98.8209 12.608H99.5209C99.5209 12.3115 99.5506 12.0145 99.6101 11.7166L98.9237 11.5794ZM98.8209 12.608V20H99.5209V12.608H98.8209ZM99.1709 19.65H97.1309V20.35H99.1709V19.65Z" fill="black" fill-opacity="0.5"/>
</g>
<g filter="url(#filter1_d)">
<path d="M130.069 18.2949C131.274 16.9717 131.997 15.3115 131.997 13.5C131.997 9.59375 128.645 6.36621 124.276 5.79004C122.896 2.97754 119.653 1 115.872 1C110.837 1 106.757 4.49609 106.757 8.8125C106.757 10.6191 107.48 12.2793 108.685 13.6074C108.015 15.1064 107.051 16.2686 107.033 16.2881C106.757 16.6152 106.678 17.0938 106.84 17.5088C106.998 17.9238 107.366 18.1924 107.769 18.1924C110.114 18.1924 112.007 17.2061 113.256 16.2979C113.659 16.4004 114.075 16.4785 114.5 16.5371C115.876 19.3398 119.105 21.3125 122.883 21.3125C123.794 21.3125 124.671 21.1953 125.503 20.9805C126.752 21.8838 128.641 22.875 130.989 22.875C131.393 22.875 131.756 22.6064 131.918 22.1914C132.076 21.7764 132.002 21.2979 131.726 20.9707C131.708 20.9561 130.74 19.7939 130.069 18.2949ZM112.857 13.7881L112.107 14.3301C111.49 14.7744 110.859 15.126 110.219 15.375C110.337 15.1455 110.455 14.9014 110.569 14.6523L111.249 13.1338L110.162 11.9375C109.57 11.2832 108.86 10.2139 108.86 8.8125C108.86 5.84863 112.072 3.34375 115.872 3.34375C119.671 3.34375 122.883 5.84863 122.883 8.8125C122.883 11.7764 119.671 14.2812 115.872 14.2812C115.149 14.2812 114.426 14.1885 113.724 14.0078L112.857 13.7881ZM128.592 16.625L127.51 17.8164L128.189 19.335C128.303 19.584 128.422 19.8281 128.54 20.0576C127.9 19.8086 127.269 19.457 126.651 19.0127L125.902 18.4707L125.03 18.6953C124.329 18.876 123.606 18.9688 122.883 18.9688C120.516 18.9688 118.404 17.9873 117.129 16.542C121.568 16.0146 124.986 12.7627 124.986 8.8125C124.986 8.64648 124.969 8.48535 124.955 8.32422C127.777 9.03223 129.894 11.0977 129.894 13.5C129.894 14.9014 129.184 15.9707 128.592 16.625Z" fill="#60C6AD"/>
<path d="M130.069 18.2949C131.274 16.9717 131.997 15.3115 131.997 13.5C131.997 9.59375 128.645 6.36621 124.276 5.79004C122.896 2.97754 119.653 1 115.872 1C110.837 1 106.757 4.49609 106.757 8.8125C106.757 10.6191 107.48 12.2793 108.685 13.6074C108.015 15.1064 107.051 16.2686 107.033 16.2881C106.757 16.6152 106.678 17.0938 106.84 17.5088C106.998 17.9238 107.366 18.1924 107.769 18.1924C110.114 18.1924 112.007 17.2061 113.256 16.2979C113.659 16.4004 114.075 16.4785 114.5 16.5371C115.876 19.3398 119.105 21.3125 122.883 21.3125C123.794 21.3125 124.671 21.1953 125.503 20.9805C126.752 21.8838 128.641 22.875 130.989 22.875C131.393 22.875 131.756 22.6064 131.918 22.1914C132.076 21.7764 132.002 21.2979 131.726 20.9707C131.708 20.9561 130.74 19.7939 130.069 18.2949ZM112.857 13.7881L112.107 14.3301C111.49 14.7744 110.859 15.126 110.219 15.375C110.337 15.1455 110.455 14.9014 110.569 14.6523L111.249 13.1338L110.162 11.9375C109.57 11.2832 108.86 10.2139 108.86 8.8125C108.86 5.84863 112.072 3.34375 115.872 3.34375C119.671 3.34375 122.883 5.84863 122.883 8.8125C122.883 11.7764 119.671 14.2812 115.872 14.2812C115.149 14.2812 114.426 14.1885 113.724 14.0078L112.857 13.7881ZM128.592 16.625L127.51 17.8164L128.189 19.335C128.303 19.584 128.422 19.8281 128.54 20.0576C127.9 19.8086 127.269 19.457 126.651 19.0127L125.902 18.4707L125.03 18.6953C124.329 18.876 123.606 18.9688 122.883 18.9688C120.516 18.9688 118.404 17.9873 117.129 16.542C121.568 16.0146 124.986 12.7627 124.986 8.8125C124.986 8.64648 124.969 8.48535 124.955 8.32422C127.777 9.03223 129.894 11.0977 129.894 13.5C129.894 14.9014 129.184 15.9707 128.592 16.625Z" stroke="black" stroke-opacity="0.5" stroke-width="0.7"/>
</g>
<defs>
<filter id="filter0_d" x="0.36969" y="2.84998" width="106.703" height="30.06" filterUnits="userSpaceOnUse" color-interpolation-filters="sRGB">
<feFlood flood-opacity="0" result="BackgroundImageFix"/>
<feColorMatrix in="SourceAlpha" type="matrix" values="0 0 0 0 0 0 0 0 0 0 0 0 0 0 0 0 0 0 127 0"/>
<feOffset dy="4"/>
<feGaussianBlur stdDeviation="2"/>
<feColorMatrix type="matrix" values="0 0 0 0 0 0 0 0 0 0 0 0 0 0 0 0 0 0 0.25 0"/>
<feBlend mode="normal" in2="BackgroundImageFix" result="effect1_dropShadow"/>
<feBlend mode="normal" in="SourceGraphic" in2="effect1_dropShadow" result="shape"/>
</filter>
<filter id="filter1_d" x="102.407" y="0.650024" width="33.9432" height="30.575" filterUnits="userSpaceOnUse" color-interpolation-filters="sRGB">
<feFlood flood-opacity="0" result="BackgroundImageFix"/>
<feColorMatrix in="SourceAlpha" type="matrix" values="0 0 0 0 0 0 0 0 0 0 0 0 0 0 0 0 0 0 127 0"/>
<feOffset dy="4"/>
<feGaussianBlur stdDeviation="2"/>
<feColorMatrix type="matrix" values="0 0 0 0 0 0 0 0 0 0 0 0 0 0 0 0 0 0 0.25 0"/>
<feBlend mode="normal" in2="BackgroundImageFix" result="effect1_dropShadow"/>
<feBlend mode="normal" in="SourceGraphic" in2="effect1_dropShadow" result="shape"/>
</filter>
</defs>
</svg>
