<svg width="30" height="30" viewBox="0 0 30 30" fill="none" xmlns="http://www.w3.org/2000/svg">
<path d="M15 0C23.2863 0 30 6.71371 30 15C30 23.2863 23.2863 30 15 30C6.71371 30 0 23.2863 0 15C0 6.71371 6.71371 0 15 0ZM15 27.0968C21.6714 27.0968 27.0968 21.6714 27.0968 15C27.0968 8.32863 21.6714 2.90323 15 2.90323C8.32863 2.90323 2.90323 8.32863 2.90323 15C2.90323 21.6714 8.32863 27.0968 15 27.0968ZM8.6129 17.9395C10.1794 18.4415 12.5081 18.7319 15 18.7319C17.4919 18.7319 19.8145 18.4415 21.3871 17.9395C21.9859 17.752 22.5605 18.2661 22.4577 18.8649C21.9798 21.7137 18.1452 23.7036 15 23.7036C11.8548 23.7036 8.02621 21.7137 7.54234 18.8649C7.44557 18.2722 8.00806 17.752 8.6129 17.9395ZM19.8387 14.0323C18.7681 14.0323 17.9032 13.1673 17.9032 12.0968C17.9032 11.0262 18.7681 10.1613 19.8387 10.1613C20.9093 10.1613 21.7742 11.0262 21.7742 12.0968C21.7742 13.1673 20.9093 14.0323 19.8387 14.0323ZM10.1613 14.0323C9.09073 14.0323 8.22581 13.1673 8.22581 12.0968C8.22581 11.0262 9.09073 10.1613 10.1613 10.1613C11.2319 10.1613 12.0968 11.0262 12.0968 12.0968C12.0968 13.1673 11.2319 14.0323 10.1613 14.0323Z" fill="black" fill-opacity="0.2"/>
</svg>
